<?xml version="1.0" encoding="utf-8"?>
<!-- Generated by IcoMoon.io -->
<!DOCTYPE svg PUBLIC "-//W3C//DTD SVG 1.1//EN" "http://www.w3.org/Graphics/SVG/1.1/DTD/svg11.dtd">
<svg version="1.1" xmlns="http://www.w3.org/2000/svg" xmlns:xlink="http://www.w3.org/1999/xlink" width="376" height="88" viewBox="0 0 376 88">
<svg id="icon-arrow-grey" width="16" height="16" viewBox="0 0 16 16" x="0" y="0">
<path fill="#d8d8d8" d="M0 0h16v16h-16v-16z"></path>
<path fill="#dadada" d="M4.776 0l-1.867 1.867 6.133 6.133-6.133 6.133 1.867 1.867 8-8-8-8z"></path>
</svg>
<svg id="icon-arrow-in-circle" width="16" height="16" viewBox="0 0 16 16" x="24" y="0">
<path fill="#89a" d="M16 8c0 4.418-3.582 8-8 8s-8-3.582-8-8c0-4.418 3.582-8 8-8s8 3.582 8 8z"></path>
<path fill="#fff" d="M7.649 6.355c-0.005 0.006-0.007-1.318-0.012-1.312l-3.491 4.114c-0.195 0.231-0.195 0.607 0 0.838 0.096 0.116 0.222 0.186 0.362 0.186h6.983c0.143 0 0.27-0.074 0.361-0.188 0.197-0.229 0.197-0.605 0.002-0.836l-3.499-4.136c-0.195-0.231-0.511-0.231-0.706 0v1.333z"></path>
</svg>
<svg id="icon-arrow-purple" width="16" height="16" viewBox="0 0 16 16" x="48" y="0">
<path fill="#d18ee2" d="M4.776 0l-1.867 1.867 6.133 6.133-6.133 6.133 1.867 1.867 8-8-8-8z"></path>
</svg>
<svg id="icon-arrow-white" width="16" height="16" viewBox="0 0 16 16" x="72" y="0">
<path fill="#fff" d="M4.776 0l-1.867 1.867 6.133 6.133-6.133 6.133 1.867 1.867 8-8-8-8z"></path>
</svg>
<svg id="icon-box-purple" width="16" height="16" viewBox="0 0 16 16" x="96" y="0">
<path fill="#d18ee2" d="M14.667 4v0 10.667c0 0.736-0.597 1.333-1.333 1.333h-10.667c-0.736 0-1.333-0.597-1.333-1.333v-10.667c-0.736 0-1.333-0.597-1.333-1.333v-1.333c0-0.736 0.597-1.333 1.333-1.333h13.333c0.736 0 1.333 0.597 1.333 1.333v1.333c0 0.736-0.597 1.333-1.333 1.333v0 0zM2.667 14.667h10.667v-10.667h-10.667v10.667zM14.667 1.333h-13.333v1.333h13.333v-1.333zM9.333 9.333h-2.667c-1.105 0-2-0.895-2-2s0.895-2 2-2h2.667c1.105 0 2 0.895 2 2s-0.895 2-2 2v0 0z"></path>
</svg>
<svg id="icon-box-white" width="16" height="16" viewBox="0 0 16 16" x="120" y="0">
<path fill="#fff" d="M14.667 4v0 10.667c0 0.736-0.597 1.333-1.333 1.333h-10.667c-0.736 0-1.333-0.597-1.333-1.333v-10.667c-0.736 0-1.333-0.597-1.333-1.333v-1.333c0-0.736 0.597-1.333 1.333-1.333h13.333c0.736 0 1.333 0.597 1.333 1.333v1.333c0 0.736-0.597 1.333-1.333 1.333v0 0zM2.667 14.667h10.667v-10.667h-10.667v10.667zM14.667 1.333h-13.333v1.333h13.333v-1.333zM9.333 9.333h-2.667c-1.105 0-2-0.895-2-2s0.895-2 2-2h2.667c1.105 0 2 0.895 2 2s-0.895 2-2 2v0 0z"></path>
</svg>
<svg id="icon-chart-purple" width="16" height="16" viewBox="0 0 16 16" x="144" y="0">
<path fill="#d18ee2" d="M7.215 15.999c-3.844 0-7.215-3.434-7.215-7.349 0-3.839 3.104-7.083 6.8-7.083 0.309 0 0.542 0.25 0.542 0.559v5.939c0 0.542 0.591 0.592 0.591 0.592h5.939c0.309 0 0.559 0.234 0.559 0.542-0 3.695-3.305 6.8-7.216 6.8v0zM15.307 7.156h-6.123c-0.288 0-0.512-0.224-0.512-0.512v-6.123c0-0.288 0.229-0.521 0.517-0.521 3.912 0 6.642 2.728 6.642 6.639 0 0.288-0.236 0.517-0.523 0.517v0z"></path>
</svg>
<svg id="icon-chart-white" width="16" height="16" viewBox="0 0 16 16" x="168" y="0">
<path fill="#fff" d="M7.215 15.999c-3.844 0-7.215-3.434-7.215-7.349 0-3.839 3.104-7.083 6.8-7.083 0.309 0 0.542 0.25 0.542 0.559v5.939c0 0.542 0.591 0.592 0.591 0.592h5.939c0.309 0 0.559 0.234 0.559 0.542-0 3.695-3.305 6.8-7.216 6.8v0zM15.307 7.156h-6.123c-0.288 0-0.512-0.224-0.512-0.512v-6.123c0-0.288 0.229-0.521 0.517-0.521 3.912 0 6.642 2.728 6.642 6.639 0 0.288-0.236 0.517-0.523 0.517v0z"></path>
</svg>
<svg id="icon-close-white" width="16" height="16" viewBox="0 0 16 16" x="192" y="0">
<path fill="#fff" d="M5.326 8l-5.348-5.348 2.674-2.674 5.348 5.348 5.348-5.348 2.674 2.674-5.348 5.348 5.348 5.348-2.674 2.674-5.348-5.348-5.348 5.348-2.674-2.674 5.348-5.348z"></path>
</svg>
<svg id="icon-controls-purple" width="16" height="16" viewBox="0 0 16 16" x="216" y="0">
<path fill="#d18ee2" d="M8 16c-4.418 0-8-3.582-8-8s3.582-8 8-8c4.418 0 8 3.582 8 8s-3.582 8-8 8v0 0zM8 1.333c-3.682 0-6.667 2.985-6.667 6.667s2.985 6.667 6.667 6.667c3.682 0 6.667-2.985 6.667-6.667 0-1.768-0.702-3.464-1.953-4.714s-2.946-1.953-4.714-1.953v0 0zM13.333 8.005v-0.005h-1.333c0-2.209-1.791-4-4-4s-4 1.791-4 4h-1.333c0-2.946 2.388-5.333 5.333-5.333s5.333 2.388 5.333 5.333v0.005zM7.366 8.779c-0.011-0.038-0.019-0.078-0.023-0.117v-2.657c0-0.363 0.294-0.657 0.657-0.657s0.657 0.294 0.657 0.657v2.657c-0.004 0.040-0.012 0.079-0.023 0.117 0.93 0.31 1.498 1.249 1.341 2.217s-0.993 1.679-1.973 1.68c-0.981 0.001-1.817-0.71-1.975-1.678s0.409-1.907 1.339-2.219v0 0zM8 11.333c0.368 0 0.667-0.298 0.667-0.667s-0.298-0.667-0.667-0.667c-0.368 0-0.667 0.298-0.667 0.667s0.298 0.667 0.667 0.667v0 0z"></path>
</svg>
<svg id="icon-controls-white" width="16" height="16" viewBox="0 0 16 16" x="240" y="0">
<path fill="#fff" d="M8 16c-4.418 0-8-3.582-8-8s3.582-8 8-8c4.418 0 8 3.582 8 8s-3.582 8-8 8v0 0zM8 1.333c-3.682 0-6.667 2.985-6.667 6.667s2.985 6.667 6.667 6.667c3.682 0 6.667-2.985 6.667-6.667 0-1.768-0.702-3.464-1.953-4.714s-2.946-1.953-4.714-1.953v0 0zM13.333 8.005v-0.005h-1.333c0-2.209-1.791-4-4-4s-4 1.791-4 4h-1.333c0-2.946 2.388-5.333 5.333-5.333s5.333 2.388 5.333 5.333v0.005zM7.366 8.779c-0.011-0.038-0.019-0.078-0.023-0.117v-2.657c0-0.363 0.294-0.657 0.657-0.657s0.657 0.294 0.657 0.657v2.657c-0.004 0.040-0.012 0.079-0.023 0.117 0.93 0.31 1.498 1.249 1.341 2.217s-0.993 1.679-1.973 1.68c-0.981 0.001-1.817-0.71-1.975-1.678s0.409-1.907 1.339-2.219v0 0zM8 11.333c0.368 0 0.667-0.298 0.667-0.667s-0.298-0.667-0.667-0.667c-0.368 0-0.667 0.298-0.667 0.667s0.298 0.667 0.667 0.667v0 0z"></path>
</svg>
<svg id="icon-document-purple" width="16" height="16" viewBox="0 0 16 16" x="264" y="0">
<path fill="#d18ee2" d="M4.509 0c-0.88 0-1.6 0.72-1.6 1.6v12.8c0 0.88 0.72 1.6 1.6 1.6h9.6c0.88 0 1.6-0.72 1.6-1.6v-9.6l-4.8-4.8h-6.4zM10.109 5.6v-4.4l4.4 4.4h-4.4z"></path>
</svg>
<svg id="icon-document-white" width="16" height="16" viewBox="0 0 16 16" x="288" y="0">
<path fill="#fff" d="M4.509 0c-0.88 0-1.6 0.72-1.6 1.6v12.8c0 0.88 0.72 1.6 1.6 1.6h9.6c0.88 0 1.6-0.72 1.6-1.6v-9.6l-4.8-4.8h-6.4zM10.109 5.6v-4.4l4.4 4.4h-4.4z"></path>
</svg>
<svg id="icon-factory-purple" width="16" height="16" viewBox="0 0 16 16" x="312" y="0">
<path fill="#d18ee2" d="M14.872 7.962l-0.751-7.456c0 0-0.258-0.263-0.763-0.263s-0.739 0.263-0.739 0.263l-0.751 7.456h3.004z"></path>
<path fill="#d18ee2" d="M11.034 7.962l-0.525-5.22c0 0-0.18-0.184-0.534-0.184s-0.518 0.184-0.518 0.184l-0.525 5.22h2.102z"></path>
<path fill="#d18ee2" d="M13.892 11.706c0 0.206-0.169 0.373-0.375 0.373h-2.253c-0.207 0-0.375-0.167-0.375-0.373v-1.118c0-0.206 0.168-0.372 0.375-0.372h2.253c0.207 0 0.375 0.166 0.375 0.372v1.118zM9.387 11.706c0 0.206-0.169 0.373-0.375 0.373h-2.253c-0.207 0-0.376-0.167-0.376-0.373v-1.118c0-0.206 0.168-0.372 0.376-0.372h2.253c0.207 0 0.375 0.166 0.375 0.372v1.118zM4.881 11.706c0 0.206-0.169 0.373-0.375 0.373h-2.253c-0.207 0-0.375-0.167-0.375-0.373v-1.118c0-0.206 0.168-0.372 0.375-0.372h2.253c0.207 0 0.375 0.166 0.375 0.372v1.118zM15.394 8.406l-7.134-0.005v-1.119c0-0.124-0.062-0.239-0.165-0.309s-0.235-0.084-0.35-0.037l-3.24 1.287v-0.941c0-0.124-0.062-0.239-0.165-0.309s-0.235-0.084-0.35-0.037l-3.754 1.491c-0.143 0.057-0.236 0.194-0.236 0.346v6.501c0 0.206 0.168 0.373 0.375 0.373h15.018c0.208 0 0.376-0.167 0.376-0.373v-6.496c0-0.206-0.168-0.373-0.375-0.373v0 0z"></path>
</svg>
<svg id="icon-factory-white" width="16" height="16" viewBox="0 0 16 16" x="336" y="0">
<path fill="#fff" d="M14.872 7.962l-0.751-7.456c0 0-0.258-0.263-0.763-0.263s-0.739 0.263-0.739 0.263l-0.751 7.456h3.004z"></path>
<path fill="#fff" d="M11.034 7.962l-0.525-5.22c0 0-0.18-0.184-0.534-0.184s-0.518 0.184-0.518 0.184l-0.525 5.22h2.102z"></path>
<path fill="#fff" d="M13.892 11.706c0 0.206-0.169 0.373-0.375 0.373h-2.253c-0.207 0-0.375-0.167-0.375-0.373v-1.118c0-0.206 0.168-0.372 0.375-0.372h2.253c0.207 0 0.375 0.166 0.375 0.372v1.118zM9.387 11.706c0 0.206-0.169 0.373-0.375 0.373h-2.253c-0.207 0-0.376-0.167-0.376-0.373v-1.118c0-0.206 0.168-0.372 0.376-0.372h2.253c0.207 0 0.375 0.166 0.375 0.372v1.118zM4.881 11.706c0 0.206-0.169 0.373-0.375 0.373h-2.253c-0.207 0-0.375-0.167-0.375-0.373v-1.118c0-0.206 0.168-0.372 0.375-0.372h2.253c0.207 0 0.375 0.166 0.375 0.372v1.118zM15.394 8.406l-7.134-0.005v-1.119c0-0.124-0.062-0.239-0.165-0.309s-0.235-0.084-0.35-0.037l-3.24 1.287v-0.941c0-0.124-0.062-0.239-0.165-0.309s-0.235-0.084-0.35-0.037l-3.754 1.491c-0.143 0.057-0.236 0.194-0.236 0.346v6.501c0 0.206 0.168 0.373 0.375 0.373h15.018c0.208 0 0.376-0.167 0.376-0.373v-6.496c0-0.206-0.168-0.373-0.375-0.373v0 0z"></path>
</svg>
<svg id="icon-gear-purple" width="16" height="16" viewBox="0 0 16 16" x="360" y="0">
<path fill="#d18ee2" d="M15.948 8.927c-0.056 0.492-0.472 0.864-0.967 0.867h-0.133c-0.444 0.002-0.842 0.278-1 0.693s-0.044 0.885 0.287 1.182c0.38 0.35 0.427 0.935 0.107 1.341-0.382 0.475-0.819 0.905-1.3 1.279-0.171 0.134-0.382 0.208-0.6 0.209-0.276-0.001-0.539-0.116-0.727-0.318-0.219-0.225-0.52-0.35-0.833-0.347-0.128-0.001-0.254 0.023-0.373 0.070-0.416 0.175-0.681 0.589-0.667 1.040 0.016 0.513-0.364 0.952-0.873 1.009-0.598 0.066-1.202 0.065-1.8-0.005-0.515-0.060-0.893-0.514-0.86-1.031 0.023-0.456-0.241-0.877-0.66-1.057-0.121-0.049-0.25-0.073-0.38-0.073-0.313-0.003-0.614 0.122-0.833 0.347-0.35 0.386-0.94 0.432-1.347 0.107-0.467-0.378-0.89-0.808-1.26-1.282-0.32-0.401-0.273-0.982 0.107-1.327 0.332-0.307 0.44-0.786 0.273-1.206-0.16-0.396-0.54-0.658-0.967-0.667h-0.040c-0.515 0.007-0.959-0.362-1.047-0.87-0.073-0.604-0.073-1.215 0-1.819 0.053-0.507 0.49-0.886 1-0.867 0.461 0.018 0.888-0.241 1.087-0.657 0.174-0.422 0.065-0.908-0.273-1.215-0.38-0.35-0.427-0.934-0.107-1.34 0.381-0.474 0.815-0.904 1.293-1.28 0.174-0.134 0.387-0.207 0.607-0.209 0.276 0.001 0.54 0.117 0.727 0.32 0.219 0.223 0.52 0.348 0.833 0.345 0.128 0.001 0.254-0.021 0.373-0.067 0.417-0.176 0.682-0.59 0.667-1.042-0.016-0.512 0.364-0.951 0.873-1.008 0.598-0.066 1.202-0.065 1.8 0.005 0.515 0.061 0.893 0.513 0.86 1.031-0.026 0.457 0.239 0.88 0.66 1.058 0.121 0.048 0.25 0.073 0.38 0.072 0.313 0.003 0.614-0.122 0.833-0.346 0.348-0.384 0.935-0.432 1.34-0.108 0.47 0.377 0.895 0.806 1.267 1.281 0.322 0.403 0.275 0.987-0.107 1.333-0.332 0.301-0.443 0.776-0.278 1.192s0.57 0.687 1.018 0.679c0.512-0.004 0.952 0.362 1.040 0.867 0.070 0.603 0.070 1.212 0 1.815v0 0zM14.628 7.378c-0.851-0.020-1.609-0.541-1.933-1.328s-0.151-1.691 0.439-2.303c-0.26-0.319-0.55-0.613-0.867-0.877-0.414 0.386-0.96 0.601-1.527 0.6-0.272 0.002-0.542-0.051-0.793-0.155-0.79-0.334-1.307-1.106-1.313-1.965-0.41-0.038-0.823-0.038-1.233 0-0.046 0.827-0.594 1.541-1.38 1.8-0.223 0.142-0.473 0.236-0.733 0.278-0.563 0.001-1.106-0.211-1.52-0.594-0.325 0.263-0.625 0.557-0.893 0.878 0.597 0.617 0.77 1.53 0.44 2.323-0.344 0.78-1.108 1.29-1.96 1.311-0.039 0.417-0.041 0.836-0.007 1.253 0.853 0.016 1.614 0.538 1.938 1.326s0.149 1.695-0.445 2.306c0.263 0.317 0.553 0.61 0.867 0.877 0.416-0.384 0.961-0.599 1.527-0.6 0.274-0.002 0.546 0.051 0.8 0.156 0.791 0.333 1.307 1.105 1.313 1.963 0.41 0.038 0.823 0.038 1.233 0 0.026-0.847 0.545-1.601 1.327-1.929 0.248-0.1 0.513-0.15 0.78-0.149 0.566-0.002 1.111 0.211 1.527 0.595 0.323-0.265 0.622-0.559 0.893-0.878-0.6-0.615-0.774-1.53-0.44-2.323 0.337-0.787 1.104-1.302 1.96-1.316 0.040-0.417 0.040-0.836 0-1.253v0.003zM8.001 10.66c-1.081 0.004-2.058-0.644-2.475-1.641s-0.191-2.148 0.572-2.914c0.763-0.766 1.912-0.996 2.912-0.584s1.651 1.387 1.651 2.468c0.002 1.472-1.188 2.667-2.66 2.671v0 0z"></path>
</svg>
<svg id="icon-gear-white" width="16" height="16" viewBox="0 0 16 16" x="0" y="24">
<path fill="#fff" d="M15.949 8.927c-0.056 0.492-0.472 0.864-0.967 0.867h-0.133c-0.444 0.002-0.842 0.278-1 0.693s-0.044 0.885 0.287 1.182c0.38 0.35 0.427 0.935 0.107 1.341-0.382 0.475-0.819 0.905-1.3 1.279-0.171 0.134-0.382 0.208-0.6 0.209-0.276-0.001-0.539-0.116-0.727-0.318-0.219-0.225-0.52-0.35-0.833-0.347-0.128-0.001-0.254 0.023-0.373 0.070-0.416 0.175-0.681 0.589-0.667 1.040 0.016 0.513-0.364 0.952-0.873 1.009-0.598 0.066-1.202 0.065-1.8-0.005-0.515-0.060-0.893-0.514-0.86-1.031 0.023-0.456-0.241-0.877-0.66-1.057-0.121-0.049-0.25-0.073-0.38-0.073-0.313-0.003-0.614 0.122-0.833 0.347-0.35 0.386-0.94 0.432-1.347 0.107-0.467-0.378-0.89-0.808-1.26-1.282-0.32-0.401-0.273-0.982 0.107-1.327 0.332-0.307 0.44-0.786 0.273-1.206-0.16-0.396-0.54-0.658-0.967-0.667h-0.040c-0.515 0.007-0.959-0.362-1.047-0.87-0.073-0.604-0.073-1.215 0-1.819 0.053-0.507 0.49-0.886 1-0.867 0.461 0.018 0.888-0.241 1.087-0.657 0.174-0.422 0.065-0.908-0.273-1.215-0.38-0.35-0.427-0.934-0.107-1.34 0.381-0.474 0.815-0.904 1.293-1.28 0.174-0.134 0.387-0.207 0.607-0.209 0.276 0.001 0.54 0.117 0.727 0.32 0.219 0.223 0.52 0.348 0.833 0.345 0.128 0.001 0.254-0.021 0.373-0.067 0.417-0.176 0.682-0.59 0.667-1.042-0.016-0.512 0.364-0.951 0.873-1.008 0.598-0.066 1.202-0.065 1.8 0.005 0.515 0.061 0.893 0.513 0.86 1.031-0.026 0.457 0.239 0.88 0.66 1.058 0.121 0.048 0.25 0.073 0.38 0.072 0.313 0.003 0.614-0.122 0.833-0.346 0.348-0.384 0.935-0.432 1.34-0.108 0.47 0.377 0.895 0.806 1.267 1.281 0.322 0.403 0.275 0.987-0.107 1.333-0.332 0.301-0.443 0.776-0.278 1.192s0.57 0.687 1.018 0.679c0.512-0.004 0.952 0.362 1.040 0.867 0.070 0.603 0.070 1.212 0 1.815v0 0zM14.629 7.378c-0.851-0.020-1.609-0.541-1.933-1.328s-0.151-1.691 0.439-2.303c-0.26-0.319-0.55-0.613-0.867-0.877-0.414 0.386-0.96 0.601-1.527 0.6-0.272 0.002-0.542-0.051-0.793-0.155-0.79-0.334-1.307-1.106-1.313-1.965-0.41-0.038-0.823-0.038-1.233 0-0.046 0.827-0.594 1.541-1.38 1.8-0.223 0.142-0.473 0.236-0.733 0.278-0.563 0.001-1.106-0.211-1.52-0.594-0.325 0.263-0.625 0.557-0.893 0.878 0.597 0.617 0.77 1.53 0.44 2.323-0.344 0.78-1.108 1.29-1.96 1.311-0.039 0.417-0.041 0.836-0.007 1.253 0.853 0.016 1.614 0.538 1.939 1.326s0.149 1.695-0.445 2.306c0.263 0.317 0.553 0.61 0.867 0.877 0.416-0.384 0.961-0.599 1.527-0.6 0.274-0.002 0.546 0.051 0.8 0.156 0.791 0.333 1.307 1.105 1.313 1.963 0.41 0.038 0.823 0.038 1.233 0 0.026-0.847 0.545-1.601 1.327-1.929 0.248-0.1 0.513-0.15 0.78-0.149 0.566-0.002 1.111 0.211 1.527 0.595 0.323-0.265 0.622-0.559 0.893-0.878-0.6-0.615-0.774-1.53-0.44-2.323 0.337-0.787 1.104-1.302 1.96-1.316 0.040-0.417 0.040-0.836 0-1.253v0.003zM8.002 10.66c-1.081 0.004-2.058-0.644-2.475-1.641s-0.191-2.148 0.572-2.914c0.763-0.766 1.913-0.996 2.912-0.584s1.651 1.387 1.651 2.468c0.002 1.472-1.188 2.667-2.66 2.671v0 0z"></path>
</svg>
<svg id="icon-hierarchy-purple" width="16" height="16" viewBox="0 0 16 16" x="24" y="24">
<path fill="#d18ee2" d="M8.060 3.257c0.945 0 1.72-0.724 1.72-1.628s-0.775-1.628-1.72-1.628c-0.945 0-1.72 0.724-1.72 1.628s0.775 1.628 1.72 1.628v0 0 0zM8.393 7.171v-0.807h-0.667v0.807h-5.050v1.473h0.667v-1.14l-0.333 0.333h10.1l-0.333-0.333v1.14h0.667v-1.473h-5.050zM14.576 11.964v0 0c0.184 0.145 0.403 0.352 0.622 0.62 0.499 0.611 0.802 1.326 0.802 2.134v0.333h-2.95v-0.667h2.616l-0.333 0.333c0-0.639-0.242-1.212-0.651-1.712-0.145-0.178-0.301-0.333-0.456-0.464-0.034-0.029-0.065-0.054-0.092-0.075-0.297 0.224-0.674 0.357-1.083 0.357s-0.787-0.133-1.083-0.357c-0.027 0.021-0.058 0.046-0.092 0.075-0.155 0.131-0.311 0.286-0.456 0.464-0.409 0.5-0.651 1.073-0.651 1.712l-0.333-0.333h2.616v0.667h-2.95v-0.333c0-0.809 0.302-1.523 0.802-2.134 0.219-0.268 0.439-0.475 0.622-0.62-0.124-0.221-0.195-0.473-0.195-0.742 0-0.892 0.777-1.602 1.72-1.602s1.72 0.71 1.72 1.602c0 0.269-0.070 0.521-0.195 0.742zM4.476 11.965v0 0c0.184 0.145 0.403 0.352 0.622 0.62 0.499 0.611 0.802 1.326 0.802 2.134v0.333h-2.95v-0.667h2.616l-0.333 0.333c0-0.639-0.242-1.212-0.651-1.712-0.145-0.178-0.301-0.333-0.456-0.464-0.034-0.029-0.065-0.054-0.092-0.075-0.297 0.224-0.674 0.357-1.083 0.357s-0.787-0.133-1.083-0.357c-0.027 0.021-0.058 0.046-0.092 0.075-0.155 0.131-0.311 0.286-0.456 0.464-0.409 0.5-0.651 1.073-0.651 1.712l-0.333-0.333h2.617v0.667h-2.95v-0.333c0-0.809 0.303-1.523 0.802-2.134 0.219-0.268 0.439-0.475 0.622-0.62-0.124-0.221-0.195-0.473-0.195-0.742 0-0.892 0.777-1.602 1.72-1.602s1.72 0.71 1.72 1.602c0 0.269-0.070 0.521-0.195 0.742zM8.060 2.59c-0.587 0-1.054-0.436-1.054-0.962s0.467-0.962 1.054-0.962c0.587 0 1.054 0.436 1.054 0.962s-0.467 0.962-1.054 0.962v0 0zM8.060 4.864v0.667h-2.95v-0.333c0-0.822 0.302-1.55 0.8-2.172 0.296-0.37 0.594-0.627 0.802-0.765l0.37 0.554c-0.035 0.023-0.103 0.075-0.195 0.153-0.155 0.134-0.312 0.293-0.457 0.474-0.41 0.512-0.654 1.099-0.654 1.755l-0.333-0.333h2.617zM8.060 5.531v-0.667h2.616l-0.333 0.333c0-0.656-0.243-1.243-0.653-1.755-0.145-0.182-0.301-0.34-0.457-0.474-0.091-0.079-0.16-0.13-0.195-0.153l0.37-0.554c0.208 0.139 0.505 0.395 0.802 0.765 0.498 0.622 0.8 1.35 0.8 2.172v0.333h-2.95z"></path>
</svg>
<svg id="icon-hierarchy-white" width="16" height="16" viewBox="0 0 16 16" x="48" y="24">
<path fill="#fff" d="M8.060 3.257c0.945 0 1.72-0.724 1.72-1.628s-0.775-1.628-1.72-1.628c-0.945 0-1.72 0.724-1.72 1.628s0.775 1.628 1.72 1.628v0 0 0zM8.393 7.171v-0.807h-0.667v0.807h-5.050v1.473h0.667v-1.14l-0.333 0.333h10.1l-0.333-0.333v1.14h0.667v-1.473h-5.050zM14.576 11.964v0 0c0.184 0.145 0.403 0.352 0.622 0.62 0.499 0.611 0.802 1.326 0.802 2.134v0.333h-2.95v-0.667h2.616l-0.333 0.333c0-0.639-0.242-1.212-0.651-1.712-0.145-0.178-0.301-0.333-0.456-0.464-0.034-0.029-0.065-0.054-0.092-0.075-0.297 0.224-0.674 0.357-1.083 0.357s-0.787-0.133-1.083-0.357c-0.027 0.021-0.058 0.046-0.092 0.075-0.155 0.131-0.311 0.286-0.456 0.464-0.409 0.5-0.651 1.073-0.651 1.712l-0.333-0.333h2.616v0.667h-2.95v-0.333c0-0.809 0.302-1.523 0.802-2.134 0.219-0.268 0.439-0.475 0.622-0.62-0.124-0.221-0.195-0.473-0.195-0.742 0-0.892 0.777-1.602 1.72-1.602s1.72 0.71 1.72 1.602c0 0.269-0.070 0.521-0.195 0.742zM4.476 11.965v0 0c0.184 0.145 0.403 0.352 0.622 0.62 0.499 0.611 0.802 1.326 0.802 2.134v0.333h-2.95v-0.667h2.616l-0.333 0.333c0-0.639-0.242-1.212-0.651-1.712-0.145-0.178-0.301-0.333-0.456-0.464-0.034-0.029-0.065-0.054-0.092-0.075-0.297 0.224-0.674 0.357-1.083 0.357s-0.787-0.133-1.083-0.357c-0.027 0.021-0.058 0.046-0.092 0.075-0.155 0.131-0.311 0.286-0.456 0.464-0.409 0.5-0.651 1.073-0.651 1.712l-0.333-0.333h2.617v0.667h-2.95v-0.333c0-0.809 0.303-1.523 0.802-2.134 0.219-0.268 0.439-0.475 0.622-0.62-0.124-0.221-0.195-0.473-0.195-0.742 0-0.892 0.777-1.602 1.72-1.602s1.72 0.71 1.72 1.602c0 0.269-0.070 0.521-0.195 0.742zM8.060 2.59c-0.587 0-1.054-0.436-1.054-0.962s0.467-0.962 1.054-0.962c0.587 0 1.054 0.436 1.054 0.962s-0.467 0.962-1.054 0.962v0 0zM8.060 4.864v0.667h-2.95v-0.333c0-0.822 0.302-1.55 0.8-2.172 0.296-0.37 0.594-0.627 0.802-0.765l0.37 0.554c-0.035 0.023-0.103 0.075-0.195 0.153-0.155 0.134-0.312 0.293-0.457 0.474-0.41 0.512-0.654 1.099-0.654 1.755l-0.333-0.333h2.617zM8.060 5.531v-0.667h2.616l-0.333 0.333c0-0.656-0.243-1.243-0.653-1.755-0.145-0.182-0.301-0.34-0.457-0.474-0.091-0.079-0.16-0.13-0.195-0.153l0.37-0.554c0.208 0.139 0.505 0.395 0.802 0.765 0.498 0.622 0.8 1.35 0.8 2.172v0.333h-2.95z"></path>
</svg>
<svg id="icon-icon_edit" width="16" height="16" viewBox="0 0 16 16" x="72" y="24">
<path fill="#89a" d="M0 1.938v12.124c0 1.066 0.868 1.938 1.938 1.938h12.124c1.066 0 1.938-0.868 1.938-1.938v-12.124c0-1.066-0.868-1.938-1.938-1.938h-12.124c-1.066 0-1.938 0.868-1.938 1.938zM9.206 5.512l1.624 1.358-4.023 4.811-1.624-1.358 4.023-4.811zM4.706 12.615l0.218-1.945 1.624 1.382-1.843 0.563zM9.766 4.79l1.624 1.358-0.29 0.347-1.624-1.358 0.29-0.347zM10.611 3.765l1.624 1.358-0.536 0.641-1.624-1.358 0.536-0.641z"></path>
</svg>
<svg id="icon-icon_fb" width="16" height="16" viewBox="0 0 16 16" x="96" y="24">
<path fill="#fff" d="M3.2 6.933c1.244 2.489 3.378 4.533 5.867 5.867l1.956-1.956c0.267-0.267 0.622-0.356 0.889-0.178 0.978 0.356 2.044 0.533 3.2 0.533 0.533 0 0.889 0.356 0.889 0.889v3.022c0 0.533-0.356 0.889-0.889 0.889-8.356 0-15.111-6.756-15.111-15.111 0-0.533 0.356-0.889 0.889-0.889h3.111c0.533 0 0.889 0.356 0.889 0.889 0 1.067 0.178 2.133 0.533 3.2 0.089 0.267 0 0.622-0.178 0.889l-2.044 1.956z"></path>
<path fill="#fff" d="M8 16h-8v-16h16v16h-5.333v-5.333h2.667v-2.667h-2.667v-1.964c0-1.369 2.667-0.702 2.667-0.702v-2.667c-2.667 0-3.381 0.057-4 0.667s-1.333 1.595-1.333 2.702v1.964h-2.667v2.667h2.667c0 0-0.149 3.221 0 5.333z"></path>
</svg>
<svg id="icon-icon_linkedin" width="16" height="16" viewBox="0 0 16 16" x="120" y="24">
<path fill="#fff" d="M0 1.832c0-0.528 0.184-0.966 0.552-1.312s0.848-0.52 1.441-0.52c0.593 0 1.068 0.173 1.425 0.52s0.539 0.784 0.546 1.312c0.007 0.521-0.173 0.957-0.541 1.307s-0.852 0.525-1.452 0.525h-0.021c-0.586 0-1.057-0.175-1.414-0.525s-0.536-0.786-0.536-1.307zM0.204 15.726v-10.616h3.535v10.616h-3.535zM5.332 15.935c0.014-2.849 0-5.694 0-7.465v-3.199l3.88-0.161v1.543c0.121-0.229 0.268-0.428 0.418-0.6s0.352-0.357 0.605-0.557c0.254-0.2 0.564-0.355 0.932-0.466s0.777-0.166 1.227-0.166c1.221 0 2.203 0.405 2.946 1.216s0.657 1.893 0.657 3.457v6.399h-3.199l0.132-5.887c0-0.75-0.145-1.337-0.434-1.762s-0.741-0.637-1.355-0.637c-0.45 0-0.827 0.123-1.13 0.37s-0.796 1.154-0.946 1.518c-0.079 0.214 0 6.399 0 6.399h-3.733z"></path>
</svg>
<svg id="icon-icon_mail" width="16" height="16" viewBox="0 0 16 16" x="144" y="24">
<path fill="#fff" d="M14.4 1.455h-12.8c-0.88 0-1.6 0.72-1.6 1.6v9.6c0 0.88 0.72 1.6 1.6 1.6h12.8c0.88 0 1.6-0.72 1.6-1.6v-9.6c0-0.88-0.72-1.6-1.6-1.6v0zM8 8.755l-8-3.886v-0.914l8 3.886 8-3.886v0.914l-8 3.886z"></path>
</svg>
<svg id="icon-icon_phone" width="16" height="16" viewBox="0 0 16 16" x="168" y="24">
<path fill="#fff" d="M3.2 6.933c1.244 2.489 3.378 4.533 5.867 5.867l1.956-1.956c0.267-0.267 0.622-0.356 0.889-0.178 0.978 0.356 2.044 0.533 3.2 0.533 0.533 0 0.889 0.356 0.889 0.889v3.022c0 0.533-0.356 0.889-0.889 0.889-8.356 0-15.111-6.756-15.111-15.111 0-0.533 0.356-0.889 0.889-0.889h3.111c0.533 0 0.889 0.356 0.889 0.889 0 1.067 0.178 2.133 0.533 3.2 0.089 0.267 0 0.622-0.178 0.889l-2.044 1.956z"></path>
</svg>
<svg id="icon-icon_play" width="16" height="16" viewBox="0 0 16 16" x="192" y="24">
<path fill="#626272" d="M4.477 15.231c-0.866 0.634-1.568 0.282-1.568-0.791v-12.882c0-1.071 0.699-1.427 1.568-0.791l8.314 6.085c0.866 0.634 0.869 1.659 0 2.295l-8.314 6.085z"></path>
</svg>
<svg id="icon-icon_plus" width="16" height="16" viewBox="0 0 16 16" x="216" y="24">
<path fill="#89a" d="M7.86 0.001c-4.399 0.077-7.936 3.739-7.859 8.138s3.739 7.936 8.138 7.859c4.399-0.077 7.936-3.739 7.859-8.138s-3.739-7.936-8.138-7.859v0zM12.013 8.73l-3.2 0.056 0.056 3.2-1.6 0.028-0.056-3.2-3.2 0.056-0.028-1.6 3.2-0.056-0.056-3.2 1.6-0.028 0.056 3.2 3.2-0.056 0.028 1.6z"></path>
</svg>
<svg id="icon-icon_toggle_merged" width="31" height="16" viewBox="0 0 31 16" x="240" y="24">
<path fill="#65b32e" d="M3.879 3.879h7.675c2.142 0 3.879 1.737 3.879 3.879v0.485c0 2.142-1.737 3.879-3.879 3.879h-7.675c-2.142 0-3.879-1.737-3.879-3.879v-0.485c0-2.142 1.737-3.879 3.879-3.879z"></path>
<path fill="#fff" d="M3.411 7.581c-0.104-0.116-0.233-0.174-0.385-0.174s-0.281 0.058-0.385 0.174c-0.104 0.116-0.157 0.256-0.157 0.421s0.052 0.304 0.157 0.419c0.104 0.115 0.233 0.173 0.385 0.173s0.281-0.058 0.385-0.173c0.104-0.115 0.157-0.255 0.157-0.419s-0.052-0.305-0.157-0.421v0zM3.025 8.952c-0.27 0-0.497-0.091-0.682-0.273s-0.277-0.408-0.277-0.679c0-0.271 0.092-0.497 0.277-0.679s0.412-0.273 0.682-0.273c0.27 0 0.497 0.091 0.682 0.273s0.277 0.408 0.277 0.679c0 0.271-0.092 0.497-0.277 0.679s-0.412 0.273-0.682 0.273v0zM5.606 7.090h0.408v1.844h-0.408l-0.87-1.155v1.155h-0.408v-1.844h0.381l0.896 1.187v-1.187z"></path>
<path fill="#89a" d="M26.996 3.879h-7.675c-2.142 0-3.879 1.737-3.879 3.879v0.485c0 2.142 1.737 3.879 3.879 3.879h7.675c2.142 0 3.879-1.737 3.879-3.879v-0.485c0-2.142-1.737-3.879-3.879-3.879z"></path>
<path fill="#fff" d="M25.486 7.761c-0.097-0.106-0.215-0.159-0.356-0.159s-0.26 0.053-0.356 0.159c-0.097 0.106-0.145 0.235-0.145 0.385s0.048 0.279 0.145 0.384c0.097 0.105 0.215 0.158 0.356 0.158s0.26-0.053 0.356-0.158c0.097-0.105 0.145-0.233 0.145-0.384s-0.048-0.279-0.145-0.385v0zM25.129 9.016c-0.25 0-0.46-0.083-0.63-0.25s-0.256-0.374-0.256-0.622c0-0.248 0.085-0.455 0.256-0.622s0.381-0.25 0.63-0.25c0.25 0 0.46 0.083 0.63 0.25s0.256 0.374 0.256 0.622c0 0.248-0.085 0.455-0.256 0.622s-0.381 0.25-0.63 0.25v0zM27.493 7.311v0.331h-0.782v0.365h0.744v0.331h-0.744v0.662h-0.377v-1.688h1.159zM28.971 7.311v0.331h-0.782v0.365h0.744v0.331h-0.744v0.662h-0.377v-1.688h1.159z"></path>
</svg>
<svg id="icon-icon_twitter" width="16" height="16" viewBox="0 0 16 16" x="288" y="24">
<path fill="#fff" d="M0 12.986c1.542 0.979 3.219 1.469 5.031 1.469 1.167 0 2.26-0.185 3.281-0.555s1.896-0.865 2.625-1.484c0.729-0.62 1.357-1.333 1.883-2.141s0.917-1.651 1.172-2.531c0.255-0.88 0.383-1.758 0.383-2.633 0-0.188-0.005-0.328-0.016-0.422 0.656-0.469 1.203-1.036 1.641-1.703-0.583 0.26-1.214 0.438-1.891 0.531 0.708-0.417 1.193-1.026 1.453-1.828-0.677 0.396-1.375 0.661-2.094 0.797-0.635-0.688-1.432-1.031-2.391-1.031-0.906 0-1.68 0.32-2.32 0.961s-0.961 1.414-0.961 2.32c0 0.302 0.026 0.552 0.078 0.75-1.344-0.073-2.604-0.411-3.781-1.016s-2.177-1.411-3-2.422c-0.302 0.521-0.453 1.073-0.453 1.656 0 1.188 0.474 2.099 1.422 2.734-0.49-0.010-1.010-0.146-1.563-0.406v0.031c0 0.781 0.26 1.477 0.781 2.086s1.161 0.987 1.922 1.133c-0.302 0.083-0.568 0.125-0.797 0.125-0.135 0-0.339-0.021-0.609-0.063 0.219 0.656 0.607 1.198 1.164 1.625s1.19 0.646 1.898 0.656c-1.208 0.938-2.568 1.406-4.078 1.406-0.271 0-0.531-0.016-0.781-0.047v0z"></path>
</svg>
<svg id="icon-logo-white" width="64" height="16" viewBox="0 0 64 16" x="312" y="24">
<path fill="#fff" d="M0 12.986c1.542 0.979 3.219 1.469 5.031 1.469 1.167 0 2.26-0.185 3.281-0.555s1.896-0.865 2.625-1.484c0.729-0.62 1.357-1.333 1.883-2.141s0.917-1.651 1.172-2.531c0.255-0.88 0.383-1.758 0.383-2.633 0-0.188-0.005-0.328-0.016-0.422 0.656-0.469 1.203-1.036 1.641-1.703-0.583 0.26-1.214 0.438-1.891 0.531 0.708-0.417 1.193-1.026 1.453-1.828-0.677 0.396-1.375 0.661-2.094 0.797-0.635-0.688-1.432-1.031-2.391-1.031-0.906 0-1.68 0.32-2.32 0.961s-0.961 1.414-0.961 2.32c0 0.302 0.026 0.552 0.078 0.75-1.344-0.073-2.604-0.411-3.781-1.016s-2.177-1.411-3-2.422c-0.302 0.521-0.453 1.073-0.453 1.656 0 1.188 0.474 2.099 1.422 2.734-0.49-0.010-1.010-0.146-1.563-0.406v0.031c0 0.781 0.26 1.477 0.781 2.086s1.161 0.987 1.922 1.133c-0.302 0.083-0.568 0.125-0.797 0.125-0.135 0-0.339-0.021-0.609-0.063 0.219 0.656 0.607 1.198 1.164 1.625s1.19 0.646 1.898 0.656c-1.208 0.938-2.568 1.406-4.078 1.406-0.271 0-0.531-0.016-0.781-0.047v0z"></path>
</svg>
<svg id="icon-magnifying-glass" width="16" height="16" viewBox="0 0 16 16" x="0" y="48">
<path fill="#eb8b2d" d="M15.227 16c-0.204 0.001-0.4-0.079-0.545-0.223l-3.591-3.565c-2.849 2.249-6.959 1.884-9.368-0.83s-2.278-6.836 0.297-9.393c2.575-2.557 6.7-2.662 9.401-0.238s3.040 6.533 0.772 9.366l3.583 3.567c0.144 0.145 0.224 0.341 0.223 0.545s-0.084 0.399-0.23 0.542c-0.143 0.146-0.338 0.228-0.542 0.229v0zM6.804 1.474c-2.96 0-5.36 2.398-5.36 5.356s2.4 5.356 5.36 5.356c2.96 0 5.36-2.398 5.36-5.356s-2.4-5.356-5.36-5.356v0 0z"></path>
</svg>
<svg id="icon-mandatory-star" width="16" height="16" viewBox="0 0 16 16" x="24" y="48">
<path fill="#cd1719" d="M15.076 7.076l-4.071-0.32 2.649-3.093c0.356-0.356 0.356-0.96 0-1.316s-0.96-0.356-1.316 0l-3.093 2.649-0.32-4.071c0-0.516-0.409-0.924-0.924-0.924s-0.924 0.409-0.924 0.924l-0.32 4.071-3.093-2.649c-0.356-0.356-0.96-0.356-1.316 0s-0.356 0.96 0 1.316l2.649 3.093-4.071 0.32c-0.516 0-0.924 0.409-0.924 0.924 0 0.249 0.107 0.498 0.267 0.658s0.409 0.267 0.658 0.267l4.071 0.32-2.649 3.093c-0.356 0.356-0.356 0.96 0 1.316 0.178 0.178 0.427 0.267 0.658 0.267s0.48-0.089 0.658-0.267l3.093-2.649 0.32 4.071c0 0.249 0.107 0.498 0.267 0.658s0.409 0.267 0.658 0.267c0.516 0 0.924-0.409 0.924-0.924l0.32-4.071 3.093 2.649c0.178 0.178 0.427 0.267 0.658 0.267s0.48-0.089 0.658-0.267c0.356-0.356 0.356-0.96 0-1.316l-2.649-3.093 4.071-0.32c0.516 0 0.924-0.409 0.924-0.924s-0.409-0.924-0.924-0.924v0z"></path>
</svg>
<svg id="icon-noimage_placeholder" width="16" height="16" viewBox="0 0 16 16" x="48" y="48">
<path fill="#000" stroke="#f1f0f4" stroke-width="0.2883" stroke-miterlimit="4" stroke-linecap="butt" stroke-linejoin="miter" d="M0.029 0.039h15.955v15.955h-15.955v-15.955z"></path>
<path fill="#f2f0f4" stroke="#fff" stroke-width="0.3604" stroke-miterlimit="4" stroke-linecap="butt" stroke-linejoin="miter" d="M4.958 5.431v5.945h6.325v-5.945z"></path>
<path fill="#fff" d="M10.955 9.994l-0.113 0c-0.004 0-0.383 0.021-0.741-0.242-0.127-0.093-0.219-0.201-0.307-0.306-0.166-0.196-0.337-0.398-0.694-0.432l-0.109-0.005c-0.357 0.039-0.528 0.241-0.694 0.437-0.088 0.104-0.18 0.212-0.307 0.306-0.354 0.259-0.739 0.242-0.752 0.242h-1.951v-4.234h5.668v4.234z"></path>
<path fill="#f2f0f4" d="M6.972 8.118c0.396 0 0.719-0.322 0.719-0.718s-0.322-0.717-0.719-0.717c-0.396 0-0.719 0.322-0.719 0.717s0.322 0.718 0.719 0.718v0z"></path>
</svg>
<svg id="icon-people-purple" width="16" height="16" viewBox="0 0 16 16" x="72" y="48">
<path fill="#d18ee2" d="M12.217 6.622c1.049-0.76 1.783-2.364 1.783-3.596 0-1.67-1.344-3.025-3-3.025-1.461 0-2.676 1.054-2.944 2.446 0.588 0.701 0.944 1.607 0.944 2.596 0 0.228-0.024 0.463-0.059 0.697 0.246 0.347 0.527 0.654 0.84 0.882-0.463 0.201-0.869 0.361-1.232 0.498-0.166 0.396-0.371 0.778-0.607 1.126 0.080 0.030 0.158 0.059 0.232 0.087 1.908 0.717 2.826 1.176 2.826 3.768h5v-2.017c0-2.543-0.797-2.163-3.783-3.462zM10 12.101v2.017h-10v-2.017c0-2.543 0.795-2.163 3.781-3.462-1.049-0.76-1.781-2.364-1.781-3.596 0-1.67 1.342-3.025 3-3.025 1.656 0 3 1.355 3 3.025 0 1.233-0.734 2.836-1.783 3.596 2.986 1.3 3.783 0.92 3.783 3.462z"></path>
</svg>
<svg id="icon-people-white" width="16" height="16" viewBox="0 0 16 16" x="96" y="48">
<path fill="#fff" d="M12.218 6.622c1.049-0.76 1.783-2.364 1.783-3.597 0-1.67-1.344-3.025-3-3.025-1.461 0-2.676 1.054-2.944 2.447 0.588 0.701 0.944 1.607 0.944 2.596 0 0.228-0.024 0.463-0.059 0.697 0.246 0.347 0.528 0.654 0.84 0.882-0.463 0.201-0.869 0.361-1.233 0.498-0.166 0.396-0.371 0.778-0.608 1.126 0.080 0.030 0.158 0.059 0.233 0.087 1.908 0.717 2.826 1.176 2.826 3.768h5v-2.017c0-2.543-0.797-2.163-3.783-3.463zM10.001 12.102v2.017h-10.001v-2.017c0-2.543 0.795-2.163 3.781-3.463-1.049-0.76-1.781-2.364-1.781-3.597 0-1.67 1.342-3.025 3-3.025 1.656 0 3 1.355 3 3.025 0 1.233-0.735 2.836-1.783 3.597 2.986 1.3 3.783 0.92 3.783 3.463z"></path>
</svg>
<svg id="icon-poweredby" width="36" height="16" viewBox="0 0 36 16" x="120" y="48">
<path fill="#fff" d="M12.218 6.622c1.049-0.76 1.783-2.364 1.783-3.597 0-1.67-1.344-3.025-3-3.025-1.461 0-2.676 1.054-2.944 2.447 0.588 0.701 0.944 1.607 0.944 2.596 0 0.228-0.024 0.463-0.059 0.697 0.246 0.347 0.528 0.654 0.84 0.882-0.463 0.201-0.869 0.361-1.233 0.498-0.166 0.396-0.371 0.778-0.608 1.126 0.080 0.030 0.158 0.059 0.233 0.087 1.908 0.717 2.826 1.176 2.826 3.768h5v-2.017c0-2.543-0.797-2.163-3.783-3.463zM10.001 12.102v2.017h-10.001v-2.017c0-2.543 0.795-2.163 3.781-3.463-1.049-0.76-1.781-2.364-1.781-3.597 0-1.67 1.342-3.025 3-3.025 1.656 0 3 1.355 3 3.025 0 1.233-0.735 2.836-1.783 3.597 2.986 1.3 3.783 0.92 3.783 3.463z"></path>
</svg>
<svg id="icon-pricing-label-purple" width="16" height="16" viewBox="0 0 16 16" x="168" y="48">
<path fill="#d18ee2" d="M14.38 0.007c-0.166-0.035-0.32 0.061-0.359 0.223-0.405 1.621-1.021 1.68-2.060 1.787-0.635 0.063-1.442 0.151-2.304 0.65-0.466 0.268-0.804 0.733-1.073 1.237l-0.944-0.544-2.526 0.63-5.113 8.136 6.243 3.594 5.109-8.154-0.602-2.416-1.659-0.955c0.227-0.437 0.504-0.829 0.848-1.029 0.741-0.432 1.432-0.509 2.048-0.568 1.080-0.098 2.1-0.201 2.616-2.249 0.043-0.144-0.057-0.309-0.224-0.343v0 0 0 0zM7.060 9.264c-0.189-0.124-0.52-0.345-1.094-0.431-0.513-0.081-0.719 0.122-0.744 0.338-0.039 0.238 0.213 0.46 0.831 0.8 0.885 0.464 1.182 0.941 1.059 1.637-0.127 0.678-0.711 1.185-1.652 1.21l-0.137 0.794-0.777-0.11 0.132-0.736c-0.518-0.099-1.007-0.319-1.278-0.537l0.397-0.859c0.294 0.231 0.746 0.46 1.255 0.523 0.453 0.077 0.793-0.065 0.856-0.365 0.045-0.296-0.167-0.51-0.729-0.788-0.793-0.411-1.303-0.873-1.171-1.609 0.127-0.678 0.701-1.144 1.563-1.169l0.132-0.736 0.777 0.11-0.108 0.673c0.518 0.099 0.855 0.262 1.112 0.426l-0.425 0.828zM8.858 4.767c0.576 0.332 0.759 1.065 0.402 1.61-0.188 0.275-0.454 0.474-0.751 0.548s-0.64 0.045-0.921-0.132c-0.576-0.332-0.754-1.047-0.402-1.61 0.169-0.27 0.454-0.474 0.751-0.548 0.111-0.028 0.209-0.033 0.306-0.038-0.081 0.229-0.148 0.436-0.2 0.62-0.149 0.037-0.265 0.123-0.35 0.258s-0.105 0.292-0.065 0.453c0.040 0.161 0.132 0.29 0.27 0.37s0.3 0.096 0.467 0.055c0.167-0.042 0.302-0.132 0.387-0.268s0.105-0.292 0.065-0.453c-0.027-0.107-0.091-0.205-0.169-0.281 0.057-0.166 0.124-0.373 0.209-0.584v0 0 0 0 0z"></path>
</svg>
<svg id="icon-pricing-label-white" width="16" height="16" viewBox="0 0 16 16" x="192" y="48">
<path fill="#fff" d="M14.38 0.007c-0.166-0.035-0.32 0.061-0.359 0.223-0.405 1.621-1.021 1.68-2.060 1.787-0.635 0.063-1.442 0.151-2.304 0.65-0.466 0.268-0.804 0.733-1.073 1.237l-0.944-0.544-2.526 0.63-5.113 8.136 6.243 3.594 5.109-8.154-0.602-2.416-1.659-0.955c0.227-0.437 0.504-0.829 0.848-1.029 0.741-0.432 1.432-0.509 2.048-0.568 1.080-0.098 2.1-0.201 2.616-2.249 0.043-0.144-0.057-0.309-0.224-0.343v0 0 0 0zM7.060 9.264c-0.189-0.124-0.52-0.345-1.094-0.431-0.513-0.081-0.719 0.122-0.744 0.338-0.039 0.238 0.213 0.46 0.831 0.8 0.885 0.464 1.182 0.941 1.059 1.637-0.127 0.678-0.711 1.185-1.652 1.21l-0.137 0.794-0.777-0.11 0.132-0.736c-0.518-0.099-1.007-0.319-1.278-0.537l0.397-0.859c0.294 0.231 0.746 0.46 1.255 0.523 0.453 0.077 0.793-0.065 0.856-0.365 0.045-0.296-0.167-0.51-0.729-0.788-0.793-0.411-1.303-0.873-1.171-1.609 0.127-0.678 0.701-1.144 1.563-1.169l0.132-0.736 0.777 0.11-0.108 0.673c0.518 0.099 0.855 0.262 1.112 0.426l-0.425 0.828zM8.858 4.767c0.576 0.332 0.759 1.065 0.402 1.61-0.188 0.275-0.454 0.474-0.751 0.548s-0.64 0.045-0.921-0.132c-0.576-0.332-0.754-1.047-0.402-1.61 0.169-0.27 0.454-0.474 0.751-0.548 0.111-0.028 0.209-0.033 0.306-0.038-0.081 0.229-0.148 0.436-0.2 0.62-0.149 0.037-0.265 0.123-0.35 0.258s-0.105 0.292-0.065 0.453c0.040 0.161 0.132 0.29 0.27 0.37s0.3 0.096 0.467 0.055c0.167-0.042 0.302-0.132 0.387-0.268s0.105-0.292 0.065-0.453c-0.027-0.107-0.091-0.205-0.169-0.281 0.057-0.166 0.124-0.373 0.209-0.584v0 0 0 0 0z"></path>
</svg>
<svg id="icon-shapes-purple" width="16" height="16" viewBox="0 0 16 16" x="216" y="48">
<path fill="#d18ee2" d="M14.667 16h-4c-0.736 0-1.333-0.597-1.333-1.333v-4c0-0.736 0.597-1.333 1.333-1.333h4c0.736 0 1.333 0.597 1.333 1.333v4c0 0.736-0.597 1.333-1.333 1.333v0 0zM14.667 10.667h-4v4h4v-4zM5.333 6.667h-4c-0.736 0-1.333-0.597-1.333-1.333v-4c0-0.736 0.597-1.333 1.333-1.333h4c0.736 0 1.333 0.597 1.333 1.333v4c0 0.736-0.597 1.333-1.333 1.333v0zM12.706 6.588c1.819 0 3.294-1.475 3.294-3.294s-1.475-3.294-3.294-3.294c-1.819 0-3.294 1.475-3.294 3.294s1.475 3.294 3.294 3.294v0zM3.294 9.412l3.294 6.588h-6.588l3.294-6.588z"></path>
</svg>
<svg id="icon-shapes-white" width="16" height="16" viewBox="0 0 16 16" x="240" y="48">
<path fill="#fff" d="M14.667 16h-4c-0.736 0-1.333-0.597-1.333-1.333v-4c0-0.736 0.597-1.333 1.333-1.333h4c0.736 0 1.333 0.597 1.333 1.333v4c0 0.736-0.597 1.333-1.333 1.333v0 0zM14.667 10.667h-4v4h4v-4zM5.333 6.667h-4c-0.736 0-1.333-0.597-1.333-1.333v-4c0-0.736 0.597-1.333 1.333-1.333h4c0.736 0 1.333 0.597 1.333 1.333v4c0 0.736-0.597 1.333-1.333 1.333v0zM12.706 6.588c1.819 0 3.294-1.475 3.294-3.294s-1.475-3.294-3.294-3.294c-1.819 0-3.294 1.475-3.294 3.294s1.475 3.294 3.294 3.294v0zM3.294 9.412l3.294 6.588h-6.588l3.294-6.588z"></path>
</svg>
<svg id="icon-shopping-cart-purple" width="16" height="16" viewBox="0 0 16 16" x="264" y="48">
<path fill="#d18ee2" d="M4.8 12.8c-0.88 0-1.6 0.72-1.6 1.6s0.72 1.6 1.6 1.6c0.88 0 1.6-0.72 1.6-1.6s-0.72-1.6-1.6-1.6v0 0zM0 0v1.6h1.6l2.88 6.080-1.12 1.92c-0.080 0.24-0.16 0.56-0.16 0.8 0 0.88 0.72 1.6 1.6 1.6h9.6v-1.6h-9.28c-0.080 0-0.16-0.080-0.16-0.16v-0.080l0.72-1.36h5.92c0.64 0 1.12-0.32 1.36-0.8l2.88-5.2c0.16-0.16 0.16-0.24 0.16-0.4 0-0.48-0.32-0.8-0.8-0.8h-11.84l-0.72-1.6h-2.64zM12.8 12.8c-0.88 0-1.6 0.72-1.6 1.6s0.72 1.6 1.6 1.6c0.88 0 1.6-0.72 1.6-1.6s-0.72-1.6-1.6-1.6v0 0z"></path>
</svg>
<svg id="icon-shopping-cart-white" width="16" height="16" viewBox="0 0 16 16" x="288" y="48">
<path fill="#fff" d="M4.8 12.8c-0.88 0-1.6 0.72-1.6 1.6s0.72 1.6 1.6 1.6c0.88 0 1.6-0.72 1.6-1.6s-0.72-1.6-1.6-1.6v0 0zM0 0v1.6h1.6l2.88 6.080-1.12 1.92c-0.080 0.24-0.16 0.56-0.16 0.8 0 0.88 0.72 1.6 1.6 1.6h9.6v-1.6h-9.28c-0.080 0-0.16-0.080-0.16-0.16v-0.080l0.72-1.36h5.92c0.64 0 1.12-0.32 1.36-0.8l2.88-5.2c0.16-0.16 0.16-0.24 0.16-0.4 0-0.48-0.32-0.8-0.8-0.8h-11.84l-0.72-1.6h-2.64zM12.8 12.8c-0.88 0-1.6 0.72-1.6 1.6s0.72 1.6 1.6 1.6c0.88 0 1.6-0.72 1.6-1.6s-0.72-1.6-1.6-1.6v0 0z"></path>
</svg>
<svg id="icon-switch-off" width="16" height="16" viewBox="0 0 16 16" x="312" y="48">
<path fill="#89a" d="M12.121 3.879h-7.675c-2.142 0-3.879 1.737-3.879 3.879v0.485c0 2.142 1.737 3.879 3.879 3.879h7.675c2.142 0 3.879-1.737 3.879-3.879v-0.485c0-2.142-1.737-3.879-3.879-3.879z"></path>
<path fill="#fff" d="M10.949 7.616c-0.097-0.106-0.215-0.159-0.356-0.159s-0.26 0.053-0.356 0.159c-0.097 0.106-0.145 0.235-0.145 0.385s0.048 0.279 0.145 0.384c0.097 0.105 0.215 0.158 0.356 0.158s0.26-0.053 0.356-0.158c0.097-0.105 0.145-0.233 0.145-0.384s-0.048-0.279-0.145-0.385v0 0zM10.592 8.872c-0.25 0-0.46-0.083-0.63-0.25s-0.256-0.374-0.256-0.622c0-0.248 0.085-0.455 0.256-0.622s0.381-0.25 0.63-0.25c0.25 0 0.46 0.083 0.63 0.25s0.256 0.374 0.256 0.622c0 0.248-0.085 0.455-0.256 0.622s-0.381 0.25-0.63 0.25v0 0zM12.956 7.167v0.331h-0.782v0.365h0.744v0.331h-0.744v0.662h-0.377v-1.688h1.159zM14.434 7.167v0.331h-0.782v0.365h0.744v0.331h-0.744v0.662h-0.377v-1.688h1.159z"></path>
<path fill="#000" stroke="#eee" stroke-width="0.9697" stroke-miterlimit="4" stroke-linecap="butt" stroke-linejoin="miter" d="M0.97 4.121h7.758c-4.284 0-7.758 3.473-7.758 7.758v-7.758c0 4.284 3.473 7.758 7.758 7.758h-7.758c4.284 0 7.758-3.473 7.758-7.758v7.758c0-4.284-3.473-7.758-7.758-7.758z"></path>
</svg>
<svg id="icon-switch-on" width="16" height="16" viewBox="0 0 16 16" x="336" y="48">
<path fill="#65b32e" d="M3.879 3.879h7.675c2.142 0 3.879 1.737 3.879 3.879v0.485c0 2.142-1.737 3.879-3.879 3.879h-7.675c-2.142 0-3.879-1.737-3.879-3.879v-0.485c0-2.142 1.737-3.879 3.879-3.879z"></path>
<path fill="#fff" d="M3.411 7.581c-0.104-0.116-0.233-0.174-0.385-0.174s-0.281 0.058-0.385 0.174c-0.104 0.116-0.157 0.256-0.157 0.421s0.052 0.304 0.157 0.419c0.104 0.115 0.233 0.173 0.385 0.173s0.281-0.058 0.385-0.173c0.104-0.115 0.157-0.255 0.157-0.419s-0.052-0.305-0.157-0.421v0zM3.025 8.952c-0.27 0-0.497-0.091-0.682-0.273s-0.277-0.408-0.277-0.679c0-0.271 0.092-0.497 0.277-0.679s0.412-0.273 0.682-0.273c0.27 0 0.497 0.091 0.682 0.273s0.277 0.408 0.277 0.679c0 0.271-0.092 0.497-0.277 0.679s-0.412 0.273-0.682 0.273v0zM5.606 7.090h0.408v1.844h-0.408l-0.87-1.155v1.155h-0.408v-1.844h0.381l0.896 1.187v-1.187z"></path>
<path fill="#000" stroke="#eee" stroke-width="0.9697" stroke-miterlimit="4" stroke-linecap="butt" stroke-linejoin="miter" d="M15.030 4.121h-7.758c4.284 0 7.758 3.473 7.758 7.758v-7.758c0 4.284-3.473 7.758-7.758 7.758h7.758c-4.284 0-7.758-3.473-7.758-7.758v7.758c0-4.284 3.473-7.758 7.758-7.758z"></path>
</svg>
<svg id="icon-tick-white" width="16" height="16" viewBox="0 0 16 16" x="360" y="48">
<path fill="#fbfbfb" d="M14.16 2.12c-0.241-0.241-0.636-0.241-0.877 0l-7.775 7.776c-0.241 0.241-0.636 0.241-0.877 0l-1.915-1.915c-0.241-0.241-0.636-0.241-0.877 0l-1.174 1.175c-0.241 0.241-0.241 0.636 0 0.877l3.966 3.965c0.241 0.241 0.636 0.241 0.877 0l9.826-9.827c0.241-0.241 0.241-0.636 0-0.877l-1.174-1.174z"></path>
</svg>
</svg>
